<svg width="1200" height="1200" viewBox="0 0 1200 1200" xmlns="http://www.w3.org/2000/svg">
  <style>
    path { fill: #151515; }
    @media (prefers-color-scheme: dark) {
      path { fill: #fff; }
    }
  </style>
  <path d="m535.2 672v48c0 20.398-15.602 36-36 36h-22.801c-21.602 0-38.398 19.199-36 40.801l26.398 207.6c2.3984 18 18 31.199 36 31.199h8.3984c21.602 0 38.398-19.199 36-40.801l-19.199-152.4c-1.1992-13.199 4.8008-26.398 16.801-34.801 43.199-28.801 72-76.801 72-133.2l0.003906-2.4023c0-20.398-15.602-36-36-36h-8.3984c-21.602 0-37.203 15.602-37.203 36z"/>
  <path d="m1075.2 516c0-152.4-121.2-276-272.4-279.6-4.8008 0-9.6016 1.1992-13.199 3.6016l-22.801 14.398c-8.3984 6-20.398 4.8008-27.602-2.3984l-80.398-80.398c-8.3984-8.3984-22.801-8.3984-31.199 0-7.1992 7.1992-8.3984 19.199-2.3984 27.602l56.398 86.398c7.1992 9.6016 3.6016 24-6 30l-110.4 73.199c-6 3.6016-9.6016 10.801-9.6016 18v46.801c0 12-9.6016 21.602-21.602 21.602h-70.801c-118.8 2.3984-236.4 46.801-330 132-9.6016 8.3984-9.6016 22.801-1.1992 32.398l25.199 25.199c8.3984 8.3984 21.602 8.3984 30 1.1992 27.602-25.199 57.602-45.602 90-62.398 15.602-8.3984 33.602 3.6016 32.398 20.398v10.801c0 51.602-25.199 98.398-63.602 127.2-6 4.8008-8.3984 12-8.3984 20.398l28.801 234c1.1992 10.801 10.801 19.199 21.602 19.199h36c13.199 0 24-12 21.602-25.199l-25.199-198c-1.1992-6 1.1992-13.199 6-18 38.398-42 61.199-98.398 61.199-159.6 0-42 32.398-76.801 74.398-79.199h391.2c12 0 21.602-9.6016 21.602-21.602v-36c0-12-9.6016-21.602-21.602-21.602l-195.6 0.003907c-12 0-21.602-9.6016-21.602-21.602v-3.6016c0-7.1992 3.6016-14.398 9.6016-18l164.4-109.2c4.8008-2.3984 9.6016-4.8008 15.602-3.6016 96 14.398 170.4 96 170.4 196.8 0 110.4-90 200.4-200.4 200.4h-94.801c-13.199 0-24 12-21.602 25.199l34.801 276c1.1992 10.801 10.801 19.199 21.602 19.199h36c13.199 0 24-12 21.602-25.199l-24-190.8c-1.1992-13.199 8.3984-25.199 21.602-25.199h159.6c16.801 0 27.602 16.801 19.199 32.398l-18 36c-3.6016 7.1992-10.801 12-19.199 12h-74.398c-12 0-21.602 9.6016-21.602 21.602v36c0 12 9.6016 21.602 21.602 21.602h124.8c8.3984 0 15.602-4.8008 19.199-12l72-142.8c1.1992-3.6016 2.3984-6 2.3984-9.6016v-52.801c0-12-9.6016-21.602-21.602-21.602h-14.398c-18 0-28.801-20.398-18-34.801 32.395-47.988 52.793-105.59 52.793-166.79z"/>
</svg>
