<svg viewBox="0 0 512 512">
<path d="M172.46,345.18c-4.89,9.98-18.32,33.18-41.15,42.35v83.07c0,6.88,5.58,12.46,12.45,12.46
	c6.88,0,12.45-5.58,12.45-12.46v-83.13c17.53-1.69,36.62-9.87,50.98-24.05C189.59,358,178.02,349.83,172.46,345.18z"/>
<g>
	<path d="M466.77,130.34c-1.34-1.34-2.85-2.41-4.46-3.2l-52.05-37.41l10.69-15.22
		c0.49-1.02,0.15-1.65-0.82-1.89c-2.59-0.35-4.63-1.21-7.08-2.24c-5.81-2.43-9.94-2.01-11.18-1.03l-8.71,8.08l-0.02-0.01
		c-0.02-0.65-0.1-1.33-0.25-2.05l-3.58-17.46c-1.41-6.88-6.13-5.66-8.09-2.02c0,0-3.09,4.83-4.92,11.23
		c-1.15,4.03-0.91,8.33,1.05,11.58c-62.39,19.46-94.55,86.25-99.16,146.21c0,0-179.57,0-182.4,0c-6.92,0-25.44,3.48-39.14,20.51
		c-5.14,6.39-9.61,14.68-12.53,25.4c-2.27,8.35-3.07,21.05-3.07,21.05c-0.3,4.77-0.55,30.01-0.55,30.01c0,4.77,3.9,8.68,8.68,8.68
		h31.24c4.77,0,8.68-3.9,8.68-8.68c0,0,0-35.47,0-36.09c0-14.77,5.53-47.55,28.86-47.55h7.8c-12.57,9.46-20.24,23.55-20.24,40.91
		v73.91c-2.27-2.42-5.49-3.94-9.07-3.94c-6.88,0-12.45,5.58-12.45,12.46V470.6c0,6.88,5.58,12.46,12.45,12.46
		c6.88,0,12.45-5.58,12.45-12.46v-80.35c0.19-5.67,0.61-6.02,2.59-6.02c37.44,0,56.26-45.86,56.44-46.32
		c0.45-1.13,1.46-1.95,2.65-2.17c1.2-0.23,2.43,0.17,3.26,1.05c0.22,0.23,21.33,21.87,62.08,24.61l98.34,0.43v108.77
		c0,6.88,5.58,12.46,12.45,12.46c6.88,0,12.46-5.58,12.46-12.46V361.93l47.43,0.14l-36.95,36.94c-4.67,4.67-4.67,12.25,0,16.91
		c2.33,2.33,5.4,3.5,8.46,3.5s6.12-1.17,8.46-3.5l56.43-56.42c4.13-4.13,4.6-10.52,1.44-15.17c-2.05-3.31-5.7-5.53-9.89-5.53h-44.17
		V136.73c2.06,2.26,4.43,4.29,7.17,6.02c8.69,5.52,25.35,7.36,40.83,3.98c0.74,2.79,2.2,5.44,4.4,7.62c6.63,6.63,17.39,6.63,24.02,0
		C473.41,147.72,473.4,136.96,466.77,130.34z"/>
	<path d="M431.89,59.09c0.83-1.53,0.28-2.24-0.66-2.43c-1.47-0.07-3.22-0.48-5.25-1.46
		c-4.04-1.95-7.92-0.92-9.42,0.47l-9.41,8.76c-0.63,0.67-0.29,1.42,0.18,1.52c1.95,0.24,4.21,0.86,6.8,2.07
		c4.5,2.12,9.33,2.77,10.21,1.6C424.36,69.64,431.87,59.14,431.89,59.09z"/>
	<path d="M435.41,39.79c0.01,0,0.02,0.01,0.03,0.02c0.78,0.09,1.6,0.31,2.43,0.7
		c3.22,1.53,6.04,1.08,6.85,0.27l4.55-6.64c0.86-1.23,0.78-2.94-0.28-4.08c-1.22-1.31-3.28-1.39-4.59-0.17l-9.61,8.63
		C434.39,39.19,434.78,39.77,435.41,39.79z"/>
	<path d="M440.01,43.87L440.01,43.87c-0.97-0.14-2.64-0.68-3.84-1.25c-2.79-1.33-6.32,0.52-6.94,1.29
		l-6.82,6.36h0c-0.58,0.68-0.09,1.24,0.52,1.33c0.03,0,0.04,0.01,0.06,0.01c1.25,0.16,2.63,0.54,4.12,1.27
		c5.42,2.62,9.11-0.19,9.48-0.59l4.61-6.33C442.08,44.11,440.56,43.93,440.01,43.87z"/>
</g>
</svg>
